<svg fill="#000000" xmlns="http://www.w3.org/2000/svg"  viewBox="0 0 50 50" width="50px" height="50px"><path d="M 24.996094 2 C 20.520865 2 16.366495 5.8464316 13.240234 11.044922 C 10.113974 16.243412 8 22.941841 8 29.261719 C 8 34.240287 9.4303571 38.905289 12.298828 42.359375 C 15.167299 45.813461 19.495886 48 24.996094 48 C 30.4925 48 34.824385 45.813208 37.695312 42.359375 C 40.56624 38.905542 42 34.240774 42 29.261719 C 42 22.941622 39.883895 16.243363 36.755859 11.044922 C 33.627824 5.8464805 29.470479 2 24.996094 2 z M 24.996094 4 C 28.257708 4 32.103504 7.1911131 35.042969 12.076172 C 37.982434 16.961231 40 23.393815 40 29.261719 C 40 33.855663 38.668572 38.059614 36.15625 41.082031 C 33.643928 44.104449 29.972687 46 24.996094 46 C 20.015302 46 16.34767 44.104196 13.837891 41.082031 C 11.328112 38.059867 10 33.856151 10 29.261719 C 10 23.393597 12.015385 16.961182 14.953125 12.076172 C 17.890865 7.191162 21.733323 4 24.996094 4 z"/></svg>